<svg id="visual" viewBox="0 0 2560 300" width="2560" height="300" xmlns="http://www.w3.org/2000/svg" xmlns:xlink="http://www.w3.org/1999/xlink" version="1.1"><path d="M0 230L61 223.8C122 217.7 244 205.3 365.8 204.3C487.7 203.3 609.3 213.7 731.2 214.5C853 215.3 975 206.7 1097 205.2C1219 203.7 1341 209.3 1463 208.5C1585 207.7 1707 200.3 1828.8 202.7C1950.7 205 2072.3 217 2194.2 225.5C2316 234 2438 239 2499 241.5L2560 244L2560 301L2499 301C2438 301 2316 301 2194.2 301C2072.3 301 1950.7 301 1828.8 301C1707 301 1585 301 1463 301C1341 301 1219 301 1097 301C975 301 853 301 731.2 301C609.3 301 487.7 301 365.8 301C244 301 122 301 61 301L0 301Z" fill="#36364b" stroke-linecap="round" stroke-linejoin="miter"></path></svg>